<?xml version="1.0" encoding="iso-8859-1"?>
<!-- Generator: Adobe Illustrator 19.0.0, SVG Export Plug-In . SVG Version: 6.00 Build 0)  -->
<svg version="1.1" id="Capa_1" xmlns="http://www.w3.org/2000/svg" xmlns:xlink="http://www.w3.org/1999/xlink" x="0px" y="0px"
	 viewBox="0 0 384.97 384.97" style="enable-background:new 0 0 384.97 384.97;" xml:space="preserve">
<g>
	<g id="Arrow_Drop_Up_Square">
		<path d="M360.909,0H24.061C10.767,0,0,10.767,0,24.061v336.848c0,13.293,10.767,24.061,24.061,24.061h336.848
			c13.281,0,24.061-10.767,24.061-24.061V24.061C384.97,10.767,374.191,0,360.909,0z M360.909,360.909H24.061V24.061h336.848
			V360.909z"/>
		<path id="Arrow_Drop_Down_4_" d="M59.935,240.666c0,6.785,5.883,12.151,12.56,11.97h239.92
			c10.671,0.289,16.602-12.872,8.927-20.476l-120.291-119.1c-4.74-4.692-12.403-4.523-17.191,0L63.664,232.065
			C61.379,234.242,59.935,237.274,59.935,240.666z M192.461,138.589l91.021,90.119H101.427L192.461,138.589z"/>
	</g>
	<g>
	</g>
	<g>
	</g>
	<g>
	</g>
	<g>
	</g>
	<g>
	</g>
	<g>
	</g>
</g>
<g>
</g>
<g>
</g>
<g>
</g>
<g>
</g>
<g>
</g>
<g>
</g>
<g>
</g>
<g>
</g>
<g>
</g>
<g>
</g>
<g>
</g>
<g>
</g>
<g>
</g>
<g>
</g>
<g>
</g>
</svg>
